<svg xmlns="http://www.w3.org/2000/svg" width="19.653" height="19.2" viewBox="0 0 19.653 19.2">
  <g id="icon_imovel" data-name="icon/imovel" transform="translate(-2126.457 -2993.18)">
    <path id="Path_19691" data-name="Path 19691" d="M2127.3,3004.915l8.984-7.135,8.983,7.135" transform="translate(0 -4)" fill="none" stroke="#c3c3d5" stroke-linecap="round" stroke-linejoin="round" stroke-width="1.2"/>
    <path id="Path_19692" data-name="Path 19692" d="M2002.93,3019.07v10.91c0,.431.26.78.581.78h1.277a.567.567,0,0,0,.451-.249,1.02,1.02,0,0,0,.187-.6v-5.984a.937.937,0,0,1,.65-1.052h2.437a.94.94,0,0,1,.652,1.052v5.984c0,.471.282.854.633.857l7.252.029a.565.565,0,0,0,.452-.249,1.019,1.019,0,0,0,.187-.6V3019.07" transform="translate(125.967 -19.012)" fill="none" stroke="#c3c3d5" stroke-linecap="round" stroke-linejoin="round" stroke-width="1.2"/>
    <rect id="Rectangle_4693" data-name="Rectangle 4693" width="3.372" height="3.372" rx="1" transform="translate(2137.707 3004.138)" fill="none" stroke="#c3c3d5" stroke-linecap="round" stroke-linejoin="round" stroke-width="1.2"/>
  </g>
</svg>
