<svg xmlns="http://www.w3.org/2000/svg" width="16.369" height="19.2" viewBox="0 0 16.369 19.2">
  <g id="icon_originacao" data-name="icon/originacao" transform="translate(-23.399 -174.4)">
    <path id="Path_21969" data-name="Path 21969" d="M3026.289,2414.1h-13.642a1.523,1.523,0,0,1-1.527-1.518v-14.965a1.523,1.523,0,0,1,1.528-1.517h9.726a.886.886,0,0,1,.626.258l3.029,3.014a.879.879,0,0,1,.259.624v14.1" transform="translate(-2987.12 -2221.1)" fill="none" stroke="#c3c3d5" stroke-linecap="round" stroke-linejoin="round" stroke-width="1.2"/>
    <path id="Path_21972" data-name="Path 21972" d="M3063.172,2401.335h-2.933a.872.872,0,0,1-.869-.871v-2.934" transform="translate(-3024.491 -2222.146)" fill="none" stroke="#c3c3d5" stroke-linecap="round" stroke-linejoin="round" stroke-width="1.2"/>
    <path id="Path_21976" data-name="Path 21976" d="M962.916-120.3l-2.213,2.249,2.213,2.285" transform="translate(-934 305)" fill="none" stroke="#c3c3d5" stroke-linecap="round" stroke-linejoin="round" stroke-width="1.2"/>
    <path id="Path_21977" data-name="Path 21977" d="M965.915-121.034l-.75,6.058" transform="translate(-934 305)" fill="none" stroke="#c3c3d5" stroke-linecap="round" stroke-width="1.2"/>
    <path id="Path_21978" data-name="Path 21978" d="M960.7-120.3l2.213,2.249-2.213,2.285" transform="translate(-926.538 305)" fill="none" stroke="#c3c3d5" stroke-linecap="round" stroke-linejoin="round" stroke-width="1.2"/>
  </g>
</svg>
