<?xml version="1.0" encoding="utf-8"?>
<svg width="113px" height="37px" viewBox="0 0 113 37" version="1.1" xmlns:xlink="http://www.w3.org/1999/xlink" xmlns="http://www.w3.org/2000/svg">
  <desc>Created with Lunacy</desc>
  <defs>
    <path d="M0 0L28.5279 0L28.5279 26.8969L0 26.8969L0 0Z" transform="translate(0.7118066 0.1762463)" id="path_1" />
    <clipPath id="mask_1">
      <use xlink:href="#path_1" />
    </clipPath>
  </defs>
  <g id="Group-12">
    <path d="M6.1028 1.85993C8.51286 0.555902 10.9537 0 14.2659 0C18.7127 0 21.4527 0.979146 23.1504 3.17568C24.4097 4.80459 24.7125 7.02007 24.0499 9.75988L23.7579 11.0747C22.2763 17.3458 17.9009 20.267 9.98909 20.267C5.51339 20.267 2.89089 19.3456 1.2221 17.186C-0.0308416 15.5653 -0.32193 13.32 0.35607 10.5107L0.64987 9.19224C1.43725 5.85863 3.27147 3.39227 6.1028 1.85993ZM17.7192 10.3862L17.9425 9.48102C18.2263 8.28168 18.1233 7.38827 17.627 6.74934C16.9707 5.90466 16.1137 5.41554 13.6747 5.41554C9.57868 5.41554 7.48953 6.74032 6.6904 9.84561L6.46621 10.7814C6.19139 11.9781 6.30349 12.8724 6.80701 13.5149C7.45337 14.3398 8.32935 14.8514 10.6942 14.8514C14.6465 14.8514 16.9445 13.3913 17.7192 10.3862Z" transform="translate(30.97992 9.689453)" id="Fill-1" fill="#FF7300" fill-rule="evenodd" stroke="none" />
    <path d="M6.1028 1.85993C8.51286 0.555902 10.9537 0 14.2659 0C18.7127 0 21.4527 0.979146 23.1504 3.17568C24.4097 4.80459 24.7125 7.02007 24.0499 9.75988L23.7579 11.0747C22.2763 17.3458 17.9009 20.267 9.98909 20.267C5.51339 20.267 2.89089 19.3456 1.2221 17.186C-0.0308416 15.5653 -0.32193 13.32 0.35607 10.5107L0.64987 9.19224C1.43725 5.85863 3.27147 3.39227 6.1028 1.85993ZM17.7192 10.3862L17.9425 9.48102C18.2263 8.28168 18.1233 7.38827 17.627 6.74934C16.9707 5.90466 16.1137 5.41554 13.6747 5.41554C9.57868 5.41554 7.48953 6.74032 6.6904 9.84561L6.46621 10.7814C6.19139 11.9781 6.30349 12.8724 6.80701 13.5149C7.45337 14.3398 8.32935 14.8514 10.6942 14.8514C14.6465 14.8514 16.9445 13.3913 17.7192 10.3862Z" transform="translate(58.9668 9.689453)" id="Fill-3" fill="#FF7300" fill-rule="evenodd" stroke="none" />
    <path d="M26.7211 0L1.94876 0C1.49857 0 1.10985 0.305024 1.00318 0.741805L0.0277593 4.82173C-0.0427527 5.11412 0.0223353 5.41644 0.208559 5.65198C0.393879 5.88841 0.673215 6.02378 0.973343 6.02378L25.7457 6.02378C26.1958 6.02378 26.5846 5.71785 26.6912 5.28107L27.6667 1.20115C27.7381 0.909659 27.6721 0.607341 27.4868 0.370902C27.3005 0.135366 27.0212 0 26.7211 0" transform="translate(0 23.37476)" id="Fill-5" fill="#FF7300" stroke="none" />
    <path d="M0.973637 5.98137L17.4219 5.98137L6.33436 15.1862C6.11649 15.3613 5.98451 15.6212 5.97185 15.9001C5.9592 16.1789 6.06768 16.4497 6.26837 16.6437L9.27959 19.5414C9.46672 19.7219 9.7108 19.813 9.95488 19.813C10.1709 19.813 10.387 19.7427 10.566 19.5992L33.5294 0.0938537L33.6415 0L1.92193 0C1.46813 0 1.0785 0.308634 0.974541 0.749927L0.0262454 4.78744C-0.0424586 5.07893 0.0253414 5.37944 0.210661 5.61317C0.396885 5.8469 0.674413 5.98137 0.973637 5.98137" transform="translate(6.248169 0)" id="Fill-7" fill="#FF9A00" stroke="none" />
    <g id="Group-11" transform="translate(83.16791 9.513428)">
      <path d="M0 0L28.5279 0L28.5279 26.8969L0 26.8969L0 0Z" transform="translate(0.7118066 0.1762463)" id="Clip-10" fill="none" stroke="none" />
      <g clip-path="url(#mask_1)">
        <path d="M19.6141 0C23.4263 0 25.7342 1.01073 27.2312 2.9239C28.5311 4.5862 28.8557 6.882 28.1958 9.74905L27.9544 10.8789C26.5387 17.1084 22.5349 20.267 15.0706 20.267C11.6914 20.267 9.79123 19.5649 8.04379 18.0524L6.12551 26.1825C6.02607 26.603 5.65362 26.8972 5.2206 26.8972L0.927507 26.8972C0.600259 26.8972 0.298323 26.7284 0.126563 26.4406C-0.00180499 26.2276 -0.028925 25.9686 0.028931 25.7267L5.82719 1.32027C5.92753 0.899732 6.29998 0.605537 6.733 0.605537L10.3255 0.605537L10.415 0.606439C10.8552 0.609146 11.2051 0.978244 11.1834 1.41683L11.1988 2.40951C13.5636 0.700293 15.8055 0 19.6141 0ZM21.8669 10.3158L22.0938 9.37002C22.3785 8.23656 22.2881 7.38556 21.8171 6.7701C21.1292 5.87127 20.0724 5.41554 17.694 5.41554C13.8656 5.41554 11.394 6.61488 10.1384 9.08395L9.48387 12.0142C9.68546 13.2812 9.94581 14.8514 14.3338 14.8514C16.9211 14.8514 20.9068 14.2621 21.8669 10.3158Z" transform="translate(0.7118066 0.1762463)" id="Fill-9" fill="#FF7300" fill-rule="evenodd" stroke="none" />
      </g>
    </g>
  </g>
</svg>