<?xml version="1.0" standalone="no"?>
<!DOCTYPE svg PUBLIC "-//W3C//DTD SVG 20010904//EN"
 "http://www.w3.org/TR/2001/REC-SVG-20010904/DTD/svg10.dtd">
<svg version="1.0" xmlns="http://www.w3.org/2000/svg"
 width="600.000000pt" height="128.000000pt" viewBox="0 0 600.000000 128.000000"
 preserveAspectRatio="xMidYMid meet">

<g transform="translate(0.000000,128.000000) scale(0.100000,-0.100000)"
fill="#000000" stroke="none">
<path d="M3215 1265 c-59 -16 -118 -73 -134 -131 -7 -26 -11 -223 -11 -574 l0
-535 122 0 123 0 5 255 5 255 156 5 c145 5 158 7 192 30 47 31 77 92 77 153
l0 47 -212 2 -213 3 -3 133 -3 132 226 0 225 0 0 120 0 120 -252 -1 c-177 0
-268 -4 -303 -14z"/>
<path d="M3807 1273 c-4 -3 -7 -287 -7 -630 l0 -623 125 0 125 0 1 163 0 162
19 -52 c67 -190 268 -309 472 -281 85 11 169 53 277 136 122 94 168 116 261
120 43 2 81 10 90 17 13 12 29 -6 114 -126 l99 -139 139 0 c109 0 138 3 132
13 -5 6 -76 106 -159 222 -83 116 -154 216 -158 222 -5 8 46 83 142 208 83
107 151 197 151 200 0 12 -171 4 -221 -11 -43 -13 -67 -29 -115 -78 -33 -33
-69 -74 -80 -90 l-21 -29 -75 104 -74 104 -137 3 c-75 1 -137 -1 -137 -4 0 -4
61 -92 135 -195 74 -104 135 -193 135 -199 0 -18 -82 -120 -135 -169 -54 -50
-147 -95 -243 -117 -162 -38 -308 22 -337 138 l-7 28 290 0 291 0 7 38 c4 20
2 77 -4 125 -32 253 -194 382 -460 364 -105 -7 -184 -34 -250 -87 -55 -43
-107 -115 -125 -174 -10 -36 -13 -9 -17 214 -5 242 -6 257 -29 303 -23 48 -66
88 -111 105 -39 14 -96 23 -103 15z m722 -553 c51 -14 99 -66 116 -124 8 -27
15 -51 15 -53 0 -2 -76 -3 -170 -3 -170 0 -170 0 -170 23 1 32 33 98 63 126
22 20 63 36 102 40 6 1 26 -3 44 -9z"/>
<path d="M5725 1266 c-46 -20 -55 -52 -55 -186 l0 -120 60 0 60 0 0 100 0 100
105 0 106 0 -3 58 -3 57 -120 2 c-83 2 -129 -2 -150 -11z"/>
<path d="M1970 1055 c0 -118 -1 -215 -2 -215 -2 0 -28 10 -58 22 -43 17 -77
22 -150 22 -86 1 -101 -2 -160 -30 -36 -17 -85 -51 -109 -75 -46 -46 -101
-148 -101 -187 0 -13 -4 -20 -10 -17 -5 3 -10 16 -10 28 0 37 -56 143 -99 186
-123 123 -371 150 -544 58 -53 -28 -147 -116 -147 -138 0 -5 -3 -9 -7 -9 -5 0
-5 42 -2 92 3 51 4 96 2 100 -7 14 -79 28 -142 28 -48 0 -91 -9 -170 -37 -118
-40 -180 -46 -229 -21 l-32 17 2 -422 3 -422 118 -3 117 -3 0 204 c0 286 23
360 130 415 49 24 85 27 143 11 30 -8 37 -14 32 -27 -4 -9 -12 -50 -18 -90
-15 -98 2 -215 43 -299 94 -191 364 -290 598 -218 l52 16 0 93 0 94 -57 -15
c-38 -10 -87 -14 -144 -11 -103 5 -161 33 -197 96 -42 76 -57 72 267 72 l290
0 16 -57 c53 -184 174 -280 366 -291 68 -3 103 0 170 18 113 31 188 36 227 16
17 -9 34 -16 37 -16 4 0 5 65 3 145 -2 80 0 145 5 145 4 0 7 -7 7 -15 0 -32
60 -133 106 -179 121 -118 340 -165 522 -111 l52 16 0 95 c0 87 -2 96 -17 89
-92 -35 -245 -32 -313 6 -49 27 -90 79 -90 115 l0 24 290 0 290 0 0 93 c0 50
-5 112 -11 136 -28 121 -119 231 -227 271 -117 45 -298 37 -410 -18 -69 -34
-156 -127 -179 -192 -10 -28 -20 -50 -23 -50 -3 0 -5 107 -5 238 0 226 -1 239
-23 287 -32 69 -67 103 -126 120 -82 25 -76 40 -76 -200z m-958 -335 c43 0
118 -99 118 -155 l0 -25 -165 0 -165 0 0 25 c0 33 31 93 63 124 28 25 80 42
112 35 11 -2 28 -4 37 -4z m1698 -15 c36 -18 60 -48 76 -92 27 -76 34 -73
-156 -73 l-169 0 6 33 c23 124 136 186 243 132z m-832 -22 c65 -31 112 -125
112 -223 0 -58 -24 -139 -51 -174 -50 -63 -154 -84 -229 -46 -70 36 -105 110
-105 220 1 191 126 292 273 223z"/>
<path d="M5820 1040 l0 -80 55 0 c54 0 55 0 55 29 0 21 6 32 20 36 21 7 50 53
50 80 0 12 -15 15 -90 15 l-90 0 0 -80z"/>
</g>
</svg>
