<svg id="Icon_option_14x14" data-name="Icon/option/14x14" xmlns="http://www.w3.org/2000/svg" width="14" height="14" viewBox="0 0 14 14">
  <g id="Path_19127" data-name="Path 19127" fill="none">
    <path d="M2.333,0h9.333A2.6,2.6,0,0,1,14,2.8v8.4A2.6,2.6,0,0,1,11.667,14H2.333A2.6,2.6,0,0,1,0,11.2V2.8A2.6,2.6,0,0,1,2.333,0Z" stroke="none"/>
    <path d="M 2.333330154418945 1.199999809265137 C 1.718999862670898 1.199999809265137 1.199999809265137 1.932709693908691 1.199999809265137 2.800000190734863 L 1.199999809265137 11.19999980926514 C 1.199999809265137 12.06729030609131 1.718999862670898 12.80000019073486 2.333330154418945 12.80000019073486 L 11.66666984558105 12.80000019073486 C 12.2810001373291 12.80000019073486 12.80000019073486 12.06729030609131 12.80000019073486 11.19999980926514 L 12.80000019073486 2.800000190734863 C 12.80000019073486 1.932709693908691 12.2810001373291 1.199999809265137 11.66666984558105 1.199999809265137 L 2.333330154418945 1.199999809265137 M 2.333330154418945 0 L 11.66666984558105 0 C 12.95532989501953 0 14 1.253600120544434 14 2.800000190734863 L 14 11.19999980926514 C 14 12.74639987945557 12.95532989501953 14 11.66666984558105 14 L 2.333330154418945 14 C 1.044670104980469 14 0 12.74639987945557 0 11.19999980926514 L 0 2.800000190734863 C 0 1.253600120544434 1.044670104980469 0 2.333330154418945 0 Z" stroke="none" fill="#c3c3d5"/>
  </g>
  <path id="Path_21953" data-name="Path 21953" d="M530.52,127.5l2.956,2.776,3.012-2.776" transform="translate(-526.503 -121.416)" fill="none" stroke="#c3c3d5" stroke-linecap="round" stroke-linejoin="round" stroke-width="1.2"/>
</svg>
