<svg xmlns="http://www.w3.org/2000/svg" width="15.003" height="15.003" viewBox="0 0 15.003 15.003">
  <g id="icon_phone_14x14" data-name="icon/phone/14x14" transform="translate(0.503 0.501)">
    <path id="Path_20649" data-name="Path 20649" d="M1151.117,4859.036a7.015,7.015,0,0,0-9.137-.493,7.109,7.109,0,0,0-1.918,9l-.867,3.187a.288.288,0,0,0,.071.272.28.28,0,0,0,.267.077l3.262-.866a6.936,6.936,0,0,0,3.354.866h.07a6.784,6.784,0,0,0,4.9-2.034,7.112,7.112,0,0,0,0-10.032Z" transform="translate(-1139.187 -4857.084)" fill="none" stroke="#c3c3d5" stroke-linecap="round" stroke-linejoin="round" stroke-width="1" fill-rule="evenodd"/>
    <path id="Path_20650" data-name="Path 20650" d="M1151.877,4867.835c-.2-.107-1.2-.6-1.393-.669s-.328-.106-.459.1a7.977,7.977,0,0,1-.647.826c-.115.131-.229.157-.442.051a5.555,5.555,0,0,1-1.639-1.026,6.157,6.157,0,0,1-1.139-1.419c-.114-.205,0-.313.09-.42a3.415,3.415,0,0,0,.3-.356,1.49,1.49,0,0,0,.213-.346.393.393,0,0,0,0-.356c-.057-.106-.458-1.122-.631-1.526s-.336-.348-.459-.355h-.393a.811.811,0,0,0-.541.265,2.324,2.324,0,0,0-.721,1.716,4.061,4.061,0,0,0,.82,2.128,9.17,9.17,0,0,0,3.49,3.1,11.5,11.5,0,0,0,1.164.428,2.81,2.81,0,0,0,1.286.082,2.086,2.086,0,0,0,1.376-.972,1.662,1.662,0,0,0,.123-.981c-.057-.1-.189-.148-.394-.248Z" transform="translate(-1141.161 -4859.221)" fill="#c3c3d5" fill-rule="evenodd"/>
  </g>
</svg>
