<svg xmlns="http://www.w3.org/2000/svg" width="15" height="15" viewBox="0 0 15 15">
  <g id="icon_loan" data-name="icon/loan" transform="translate(0.5 0.5)">
    <ellipse id="Ellipse_2834" data-name="Ellipse 2834" cx="7" cy="7" rx="7" ry="7" fill="none" stroke="#c3c3d5" stroke-width="1"/>
    <path id="Path_20046" data-name="Path 20046" d="M287.059,4305.5a1.02,1.02,0,0,0-.173-.132,5.068,5.068,0,0,0-.868-.389,2.65,2.65,0,0,0-.545-.132v1.357l.314.073c.339.1.645.2.917.307a2.561,2.561,0,0,1,.686.405,1.725,1.725,0,0,1,.438.595,2.087,2.087,0,0,1,.149.826,2.129,2.129,0,0,1-.2.958,1.868,1.868,0,0,1-.529.652,2.527,2.527,0,0,1-.76.38,4.042,4.042,0,0,1-.909.149v1.149h-.686v-1.157a6.547,6.547,0,0,1-1.355-.28,4.938,4.938,0,0,1-1.2-.579l.711-1.414a1.38,1.38,0,0,0,.215.165,3.972,3.972,0,0,0,.438.232,6.466,6.466,0,0,0,.6.24,4.285,4.285,0,0,0,.694.165v-1.323l-.471-.132a6.1,6.1,0,0,1-.826-.33,2.373,2.373,0,0,1-.6-.4,1.725,1.725,0,0,1-.347-.529,1.981,1.981,0,0,1-.108-.695,2.334,2.334,0,0,1,.174-.917,2.28,2.28,0,0,1,.479-.686,2.5,2.5,0,0,1,.719-.454,3.367,3.367,0,0,1,.884-.216v-1h.686v1a4.406,4.406,0,0,1,1.207.289,8.292,8.292,0,0,1,.983.472Zm-2.752-.091a.471.471,0,0,0,.173.388,1.5,1.5,0,0,0,.521.256v-1.223c-.463.041-.694.239-.694.544Zm1.925,3.156a.464.464,0,0,0-.207-.405,2.283,2.283,0,0,0-.554-.263v1.19C285.976,4309.067,286.232,4308.894,286.232,4308.563Z" transform="translate(-278.158 -4300.044)" fill="#c3c3d5"/>
  </g>
</svg>
