<svg xmlns="http://www.w3.org/2000/svg" width="76.371" height="69.69" viewBox="0 0 76.371 69.69">
  <g id="icon" transform="translate(-47.682 83.245)">
    <path id="Path_21557" data-name="Path 21557" d="M3056.53,3879.57a38.186,38.186,0,1,0,76.371,0Z" transform="translate(-3008.848 -3931.312)" fill="#e8e8ef"/>
    <circle id="Ellipse_3309" data-name="Ellipse 3309" cx="30.668" cy="30.668" r="30.668" transform="translate(54.856 -82.745)" fill="#fff" stroke="#e8e8ef" stroke-width="1"/>
    <g id="persona" transform="translate(-1151.598 -616.056)">
      <path id="Path_21984" data-name="Path 21984" d="M2625.416,3088.67h6.425a8.564,8.564,0,0,1,8.564,8.564v.213a33.492,33.492,0,0,1-8.156,6.126,29.108,29.108,0,0,1-13.132,3.089,31.969,31.969,0,0,1-14.713-3.569,26.842,26.842,0,0,1-6.4-4.88v-.979a8.564,8.564,0,0,1,8.564-8.564h6.6a4.589,4.589,0,0,0,4.589,4.589h3.059a4.589,4.589,0,0,0,4.589-4.589Z" transform="translate(-1381.672 -2512.974)" fill="#5c3b6b" stroke="#5c3b6b" stroke-width="1"/>
      <path id="Path_21985" data-name="Path 21985" d="M2627.525,3005.535c1.044-.854.92-2.369.467-3.629-1.606-4.465-12.1-8.173-17.825-1.778-5.947,6.648-2.946,8.9-7.816,12.412-7.078,5.089-4.38,12.247-3.34,14.15h13.934" transform="translate(-1381.438 -2454.579)" fill="none" stroke="#5c3b6b" stroke-linecap="round" stroke-linejoin="round" stroke-width="1"/>
      <path id="Path_21986" data-name="Path 21986" d="M2651.638,3068.213v3.225c0,3.456-2.7,5.219-6.027,5.219h0c-3.33,0-6.031-1.762-6.031-5.219V3062.5" transform="translate(-1408.073 -2496.358)" fill="none" stroke="#5c3b6b" stroke-linecap="round" stroke-linejoin="round" stroke-width="1"/>
      <path id="Path_21987" data-name="Path 21987" d="M2664.077,3016.65a9.252,9.252,0,0,1,3.4,5.012l1.57,5.819a9.287,9.287,0,0,1-6.545,11.379h0a9.236,9.236,0,0,1-4.746.03" transform="translate(-1419.61 -2467.245)" fill="none" stroke="#5c3b6b" stroke-linecap="round" stroke-linejoin="round" stroke-width="1"/>
      <path id="Path_21988" data-name="Path 21988" d="M2669.811,3046.74l.657,2.157a1.183,1.183,0,0,1-.653,1.526h0a1.183,1.183,0,0,1-1.395-.9" transform="translate(-1426.385 -2486.35)" fill="none" stroke="#5c3b6b" stroke-linecap="round" stroke-linejoin="round" stroke-width="1"/>
      <path id="Path_21989" data-name="Path 21989" d="M2633.752,3032.076a3.514,3.514,0,0,1-2.267.953,3.563,3.563,0,0,1-2.351-6.356c11.456.884,9.221-10.758,16.395-10.586" transform="translate(-1400.58 -2466.886)" fill="none" stroke="#5c3b6b" stroke-linecap="round" stroke-linejoin="round" stroke-width="1"/>
      <path id="Path_21990" data-name="Path 21990" d="M2673.73,3077.57" transform="translate(-1429.756 -2505.926)" fill="none" stroke="#5c3c6b" stroke-linecap="round" stroke-linejoin="round" stroke-width="1"/>
      <path id="Path_21991" data-name="Path 21991" d="M2655.33,3079" transform="translate(-1418.073 -2506.834)" fill="none" stroke="#5c3c6b" stroke-linecap="round" stroke-linejoin="round" stroke-width="1"/>
      <circle id="Ellipse_3456" data-name="Ellipse 3456" cx="1.351" cy="1.351" r="1.351" transform="translate(1237.399 559.32)" fill="#5c3b6b"/>
      <circle id="Ellipse_3457" data-name="Ellipse 3457" cx="1.351" cy="1.351" r="1.351" transform="translate(1244.693 557.316)" fill="#5c3b6b"/>
      <path id="Path_21993" data-name="Path 21993" d="M2671.486,3058.581a2.738,2.738,0,0,1-4.556,1.563" transform="translate(-1425.439 -2493.869)" fill="none" stroke="#5c3b6b" stroke-linecap="round" stroke-linejoin="round" stroke-width="1" fill-rule="evenodd"/>
    </g>
  </g>
</svg>
