<svg xmlns="http://www.w3.org/2000/svg" width="1440.491" height="832" viewBox="0 0 1440.491 832">
  <g id="Group_8858" data-name="Group 8858" transform="translate(0 45.232)">
    <rect id="Rectangle_2676" data-name="Rectangle 2676" width="1440" height="832" transform="translate(0 -45.232)" fill="#f0f0f7" style="isolation: isolate"/>
    <path id="Path_12865" data-name="Path 12865" d="M730.993,1703.642H1440V1824l-831.688-1.343c5.791-.966,15.431-1.833,24.417-7.659,7.922-5.136,14.6-10.9,34.59-47.5,3.191-5.841,8.183-13.577,13.86-23.2,3.516-5.959,6.913-13.261,12.009-19.875a52.079,52.079,0,0,1,16.129-14.524A50.727,50.727,0,0,1,730.993,1703.642Z" transform="translate(0 -1068.461)" fill="#f0f0f7"/>
    <path id="Path_12866" data-name="Path 12866" d="M1435.276,1754.539h-706.7a48.951,48.951,0,0,0-41.9,23.638l-42.555,71.238a48.952,48.952,0,0,1-41.955,23.733H74.285" transform="translate(4.715 -1119.358)" fill="none" stroke="#c3c3d5" stroke-linecap="round" stroke-miterlimit="10" stroke-width="1"/>
    <path id="Path_21983" data-name="Path 21983" d="M244.289,864.749l-6.342,10.33a5.27,5.27,0,0,1-4.474,2.512l-23.123.069a2.594,2.594,0,0,1-2.219-3.952l6.342-10.33a5.271,5.271,0,0,1,4.474-2.512l23.123-.069A2.594,2.594,0,0,1,244.289,864.749Z" transform="translate(-147.742 -115.439)" fill="#c3b8c6" opacity="0.4"/>
  </g>
</svg>
