<svg xmlns="http://www.w3.org/2000/svg" width="15.205" height="15.2" viewBox="0 0 15.205 15.2">
  <g id="Icon_folder_14x14" data-name="Icon/folder/14x14" transform="translate(0.602 0.6)">
    <path id="Path_21959" data-name="Path 21959" d="M6133.111,2961.082l-1.729-13.177a.729.729,0,0,1,.127-.551.577.577,0,0,1,.46-.244h3.532a.583.583,0,0,1,.484.278l.825,1.281a.575.575,0,0,0,.485.278h5.662a.615.615,0,0,1,.581.515v2.488" transform="translate(-6131.372 -2947.11)" fill="none" stroke="#c3c3d5" stroke-width="1.2"/>
    <path id="Path_21960" data-name="Path 21960" d="M6161.383,2989.536h-10.51a.062.062,0,0,1-.052-.034.108.108,0,0,1-.012-.078l1.5-8.537c.064-.368.3-.627.581-.626h9.835a.553.553,0,0,1,.469.312,1.059,1.059,0,0,1,.112.7l-1.345,7.637C6161.9,2989.277,6161.658,2989.536,6161.383,2989.536Z" transform="translate(-6149.325 -2975.537)" fill="none" stroke="#c3c3d5" stroke-width="1.2"/>
  </g>
</svg>
