<svg xmlns="http://www.w3.org/2000/svg" width="16.326" height="19.211" viewBox="0 0 16.326 19.211">
  <g id="icon_contrato" data-name="icon/contrato" transform="translate(-3140.7 -2395.5)">
    <path id="Path_20871" data-name="Path 20871" d="M3025.988,2414.1l-13.345-.05a1.519,1.519,0,0,1-1.523-1.514v-14.923a1.519,1.519,0,0,1,1.523-1.513h9.7a.883.883,0,0,1,.625.257l3.021,3.005a.877.877,0,0,1,.258.622l-.258,14.115" transform="translate(130.18 0)" fill="none" stroke="#c3c3d5" stroke-linecap="round" stroke-linejoin="round" stroke-width="1.2"/>
    <path id="Path_20872" data-name="Path 20872" d="M3063.762,2401.925h-3.388a1.007,1.007,0,0,1-1-1.006v-3.388" transform="translate(92.222 -0.987)" fill="none" stroke="#c3c3d5" stroke-linecap="round" stroke-linejoin="round" stroke-width="1.2"/>
    <line id="Line_3553" data-name="Line 3553" x2="7.225" transform="translate(3143.904 2403.857)" fill="none" stroke="#c3c3d5" stroke-linecap="round" stroke-linejoin="round" stroke-width="1.2"/>
    <line id="Line_3554" data-name="Line 3554" x2="8.823" transform="translate(3143.907 2407.069)" fill="none" stroke="#c3c3d5" stroke-linecap="round" stroke-linejoin="round" stroke-width="1.2"/>
    <path id="Path_21968" data-name="Path 21968" d="M0,0H8.823" transform="translate(3143.907 2410.269)" fill="none" stroke="#c3c3d5" stroke-linecap="round" stroke-width="1.2"/>
  </g>
</svg>
