<svg xmlns="http://www.w3.org/2000/svg" width="19.446" height="19.216" viewBox="0 0 19.446 19.216">
  <g id="icon_pessoas" data-name="icon/pessoas" transform="translate(7747.759 -477.956)">
    <path id="Path_21925" data-name="Path 21925" d="M2231.959,2343.94h2.722a3.638,3.638,0,0,1,3.643,3.632v.073H2220.29v-.073a3.638,3.638,0,0,1,3.643-3.632h2.81a1.948,1.948,0,0,0,1.951,1.946h1.3a1.949,1.949,0,0,0,1.952-1.946Z" transform="translate(-9967.238 -1851.073)" fill="none" stroke="#c3c3d5" stroke-width="1.2"/>
    <path id="Path_21926" data-name="Path 21926" d="M2232.771,2293.389a1.352,1.352,0,0,0,.2-1.539c-.682-1.894-5.135-3.467-7.561-.753-2.523,2.819-1.251,3.774-3.315,5.245a4.53,4.53,0,0,0-1.416,6h5.909" transform="translate(-9967.091 -1811.07)" fill="none" stroke="#c3c3d5" stroke-linecap="round" stroke-linejoin="round" stroke-width="1.2"/>
    <path id="Path_21927" data-name="Path 21927" d="M2249.974,2330.8v1.311a2.557,2.557,0,0,1-2.557,2.557h0a2.559,2.559,0,0,1-2.557-2.557v-3.651" transform="translate(-9985.338 -1839.653)" fill="none" stroke="#c3c3d5" stroke-linecap="round" stroke-linejoin="round" stroke-width="1.2"/>
    <path id="Path_21928" data-name="Path 21928" d="M2258.265,2301.42a3.933,3.933,0,0,1,1.44,2.124l.666,2.468a3.934,3.934,0,0,1-2.777,4.828h0a3.922,3.922,0,0,1-2.014,0" transform="translate(-9993.234 -1819.739)" fill="none" stroke="#c3c3d5" stroke-linecap="round" stroke-linejoin="round" stroke-width="1.2"/>
    <path id="Path_21930" data-name="Path 21930" d="M2240.491,2307.927a1.508,1.508,0,1,1-1.959-2.292c4.857.375,3.91-4.563,6.952-4.487" transform="translate(-9980.263 -1819.542)" fill="none" stroke="#c3c3d5" stroke-linecap="round" stroke-linejoin="round" stroke-width="1.2"/>
    <path id="Path_21931" data-name="Path 21931" d="M2265,2337.38" transform="translate(-10000.188 -1846.25)" fill="none" stroke="#c3c3d5" stroke-linecap="round" stroke-linejoin="round" stroke-width="1.2"/>
    <path id="Path_21932" data-name="Path 21932" d="M2254.16,2338.24" transform="translate(-9992.197 -1846.884)" fill="none" stroke="#c3c3d5" stroke-linecap="round" stroke-linejoin="round" stroke-width="1.2"/>
  </g>
</svg>
