<svg id="jpg" xmlns="http://www.w3.org/2000/svg" width="24.5" height="32" viewBox="0 0 24.5 32">
  <path id="Path_9763" data-name="Path 9763" d="M23.869,0H7.334C6.873,0,6.5.374,6.5,1.1V31.429A.858.858,0,0,0,7.334,32H30.166A.858.858,0,0,0,31,31.429V7.416c0-.4-.053-.526-.146-.62L24.224.147A.5.5,0,0,0,23.869,0Z" transform="translate(-6.5)" fill="#e8e8ef"/>
  <path id="Path_9764" data-name="Path 9764" d="M37.939.141V6.875h6.719Z" transform="translate(-20.222 -0.073)" fill="#c3c3d5"/>
  <circle id="Ellipse_219" data-name="Ellipse 219" cx="2.35" cy="2.35" r="2.35" transform="translate(4.597 5.745)" fill="#fccd5c"/>
  <path id="Path_9765" data-name="Path 9765" d="M6.5,29.044H31V23.386L25.3,18.5,19.32,24.415,16.2,21.595Z" transform="translate(-6.5 -5.789)" fill="#5c3b6b"/>
  <path id="Path_9766" data-name="Path 9766" d="M30.166,47.744H7.334a.8.8,0,0,1-.834-.753V39H31v7.992A.8.8,0,0,1,30.166,47.744Z" transform="translate(-6.5 -15.744)" fill="#5c3b6b"/>
  <g id="Group_1499" data-name="Group 1499" transform="translate(5.618 25.133)">
    <path id="Path_9767" data-name="Path 9767" d="M18.432,42.65v4.037a1.291,1.291,0,0,1-.134.615,1.1,1.1,0,0,1-.359.4,1.429,1.429,0,0,1-.517.211,2.973,2.973,0,0,1-.6.06,2.44,2.44,0,0,1-.362-.032,3.078,3.078,0,0,1-.429-.1q-.221-.067-.425-.151a1.555,1.555,0,0,1-.345-.19l.359-.569a1.05,1.05,0,0,0,.2.1q.13.052.285.1c.1.031.211.057.324.081a1.541,1.541,0,0,0,.316.035,1.08,1.08,0,0,0,.594-.144.569.569,0,0,0,.236-.489V42.65Z" transform="translate(-15.26 -42.65)" fill="#fff"/>
    <path id="Path_9768" data-name="Path 9768" d="M24.717,48.038h-.844V42.855h1.491a2.092,2.092,0,0,1,.654.105,1.778,1.778,0,0,1,.58.316,1.652,1.652,0,0,1,.415.51,1.412,1.412,0,0,1,.158.672,1.837,1.837,0,0,1-.134.714,1.492,1.492,0,0,1-.373.538,1.68,1.68,0,0,1-.577.337,2.219,2.219,0,0,1-.745.119h-.626v1.871Zm0-4.543v2.053h.774A.919.919,0,0,0,25.8,45.5a.771.771,0,0,0,.278-.172.842.842,0,0,0,.2-.334,1.581,1.581,0,0,0,.077-.531,1.436,1.436,0,0,0-.035-.292.842.842,0,0,0-.144-.316.852.852,0,0,0-.306-.253,1.131,1.131,0,0,0-.521-.1Z" transform="translate(-19.443 -42.75)" fill="#fff"/>
    <path id="Path_9769" data-name="Path 9769" d="M35.848,45.286v2a1.514,1.514,0,0,1-.362.334,2.213,2.213,0,0,1-.422.214,2.176,2.176,0,0,1-.457.119,3.006,3.006,0,0,1-.468.036,2.127,2.127,0,0,1-.854-.169,1.913,1.913,0,0,1-.682-.5,2.356,2.356,0,0,1-.457-.83,4.1,4.1,0,0,1,0-2.3,2.344,2.344,0,0,1,.457-.826,1.944,1.944,0,0,1,.686-.5,2.093,2.093,0,0,1,.851-.172,2.178,2.178,0,0,1,.787.14,1.921,1.921,0,0,1,.654.422L35,43.775a1,1,0,0,0-.387-.3,1.158,1.158,0,0,0-.45-.092,1.269,1.269,0,0,0-.5.1,1.062,1.062,0,0,0-.422.334,1.72,1.72,0,0,0-.292.608,3.589,3.589,0,0,0-.113.914,3.814,3.814,0,0,0,.109.914,1.876,1.876,0,0,0,.281.633,1.2,1.2,0,0,0,.408.366,1.024,1.024,0,0,0,.482.119c.051,0,.12,0,.207-.011a2.526,2.526,0,0,0,.26-.035,1.693,1.693,0,0,0,.249-.067.358.358,0,0,0,.176-.119v-1.28h-.879v-.577h1.716Z" transform="translate(-23.38 -42.67)" fill="#fff"/>
  </g>
</svg>
