<svg id="google_logo" data-name="google/logo" xmlns="http://www.w3.org/2000/svg" width="26" height="26.534" viewBox="0 0 26 26.534">
  <path id="Path_21979" data-name="Path 21979" d="M20.06,7.325a11.5,11.5,0,0,1,2.207-3.172A12.841,12.841,0,0,1,29.668.2a12.816,12.816,0,0,1,10.87,3.023c.2.172.248.272.032.484C39.457,4.792,38.363,5.9,37.262,7c-.113.113-.189.251-.389.067a7.627,7.627,0,0,0-10.251.228,8.473,8.473,0,0,0-2.2,3.362,2.387,2.387,0,0,1-.206-.135Z" transform="translate(-18.628 0)" fill="#d7282a"/>
  <path id="Path_21980" data-name="Path 21980" d="M24.246,222.19a8.91,8.91,0,0,0,1.626,2.776,7.823,7.823,0,0,0,6.957,2.665,8.427,8.427,0,0,0,3.56-1.241c.1.094.205.195.316.282q1.926,1.5,3.855,3a11.035,11.035,0,0,1-4.973,2.718,13.368,13.368,0,0,1-12.162-2.454,12.34,12.34,0,0,1-3.516-4.382Z" transform="translate(-18.489 -206.367)" fill="#45ac43"/>
  <path id="Path_21981" data-name="Path 21981" d="M194.506,163.535q-1.926-1.5-3.855-3c-.111-.087-.214-.188-.316-.282a6.739,6.739,0,0,0,2.073-2.447,8.47,8.47,0,0,0,.45-1.235c.087-.29.06-.4-.3-.4-2.14.018-4.28.009-6.42.009-.453,0-.453,0-.453-.469,0-1.45.006-2.9-.006-4.351,0-.28.046-.387.361-.386q5.92.017,11.841,0c.214,0,.347.016.384.275a14.548,14.548,0,0,1-1.712,9.793A9.682,9.682,0,0,1,194.506,163.535Z" transform="translate(-172.459 -140.227)" fill="#5d7fbe"/>
  <path id="Path_21982" data-name="Path 21982" d="M5.743,111.214l-4.336,3.367A12,12,0,0,1,.1,110.39a13.108,13.108,0,0,1,1.112-7.326c.059-.128.134-.249.2-.374l4.152,3.2c.065.05.138.09.206.135A8.374,8.374,0,0,0,5.743,111.214Z" transform="translate(0.014 -95.378)" fill="#f4c300"/>
</svg>
